<?xml version="1.0" encoding="UTF-8" standalone="no"?><!DOCTYPE svg PUBLIC "-//W3C//DTD SVG 1.1//EN" "http://www.w3.org/Graphics/SVG/1.1/DTD/svg11.dtd"><svg width="100%" height="100%" viewBox="0 0 100 100" version="1.1" xmlns="http://www.w3.org/2000/svg" xmlns:xlink="http://www.w3.org/1999/xlink" xml:space="preserve" xmlns:serif="http://www.serif.com/" style="fill-rule:evenodd;clip-rule:evenodd;stroke-linejoin:round;stroke-miterlimit:2;"><path d="M16.674,17.437l-3.436,1.669c-2.152,0.904 -3.609,2.451 -4.372,4.639c-0.762,2.188 -0.656,4.358 0.318,6.51l7.512,16.244l-0.022,-29.062Zm16.66,-9.075c-2.291,0.002 -4.252,0.837 -5.883,2.504c-1.631,1.668 -2.445,3.648 -2.444,5.94l0.018,24.896l11.124,-30.634c0.208,-0.486 0.381,-0.955 0.52,-1.406c0.138,-0.452 0.381,-0.886 0.728,-1.303l-4.063,0.003Zm21.459,0.505c-2.153,-0.762 -4.306,-0.656 -6.458,0.318c-2.152,0.973 -3.609,2.537 -4.372,4.69l-18.4,50.951c-0.762,2.154 -0.656,4.289 0.317,6.406c0.974,2.118 2.538,3.557 4.691,4.32l31.363,11.435c2.153,0.762 4.288,0.657 6.406,-0.317c2.117,-0.974 3.557,-2.537 4.319,-4.691l18.504,-50.951c0.763,-2.153 0.657,-4.288 -0.317,-6.406c-0.973,-2.117 -2.537,-3.557 -4.69,-4.319l-31.363,-11.436Zm-2.911,7.815l31.467,11.435l-18.609,51.056l-31.362,-11.436l18.504,-51.055Z" style="fill:#e3e3e3;fill-rule:nonzero;"/></svg>